<svg width="24" height="25" viewBox="0 0 24 25" fill="none" xmlns="http://www.w3.org/2000/svg">
<path fill-rule="evenodd" clip-rule="evenodd" d="M2 6.7334C2 5.67253 2.42143 4.65512 3.17157 3.90497C3.92172 3.15483 4.93913 2.7334 6 2.7334H18C19.0609 2.7334 20.0783 3.15483 20.8284 3.90497C21.5786 4.65512 22 5.67253 22 6.7334V18.7334C22 19.7943 21.5786 20.8117 20.8284 21.5618C20.0783 22.312 19.0609 22.7334 18 22.7334H6C4.93913 22.7334 3.92172 22.312 3.17157 21.5618C2.42143 20.8117 2 19.7943 2 18.7334V6.7334ZM6 4.7334C5.46957 4.7334 4.96086 4.94411 4.58579 5.31918C4.21071 5.69426 4 6.20297 4 6.7334V18.7334C4 19.2638 4.21071 19.7725 4.58579 20.1476C4.96086 20.5227 5.46957 20.7334 6 20.7334H18C18.5304 20.7334 19.0391 20.5227 19.4142 20.1476C19.7893 19.7725 20 19.2638 20 18.7334V6.7334C20 6.20297 19.7893 5.69426 19.4142 5.31918C19.0391 4.94411 18.5304 4.7334 18 4.7334H6ZM12 9.7334C11.2044 9.7334 10.4413 10.0495 9.87868 10.6121C9.31607 11.1747 9 11.9377 9 12.7334C9 13.529 9.31607 14.2921 9.87868 14.8547C10.4413 15.4173 11.2044 15.7334 12 15.7334C12.7956 15.7334 13.5587 15.4173 14.1213 14.8547C14.6839 14.2921 15 13.529 15 12.7334C15 11.9377 14.6839 11.1747 14.1213 10.6121C13.5587 10.0495 12.7956 9.7334 12 9.7334ZM7 12.7334C7 11.4073 7.52678 10.1355 8.46447 9.19786C9.40215 8.26018 10.6739 7.7334 12 7.7334C13.3261 7.7334 14.5979 8.26018 15.5355 9.19786C16.4732 10.1355 17 11.4073 17 12.7334C17 14.0595 16.4732 15.3313 15.5355 16.2689C14.5979 17.2066 13.3261 17.7334 12 17.7334C10.6739 17.7334 9.40215 17.2066 8.46447 16.2689C7.52678 15.3313 7 14.0595 7 12.7334ZM17.5 8.7334C17.8978 8.7334 18.2794 8.57536 18.5607 8.29406C18.842 8.01275 19 7.63122 19 7.2334C19 6.83557 18.842 6.45404 18.5607 6.17274C18.2794 5.89143 17.8978 5.7334 17.5 5.7334C17.1022 5.7334 16.7206 5.89143 16.4393 6.17274C16.158 6.45404 16 6.83557 16 7.2334C16 7.63122 16.158 8.01275 16.4393 8.29406C16.7206 8.57536 17.1022 8.7334 17.5 8.7334Z" fill="#373735"/>
</svg>
