<svg width="24" height="25" viewBox="0 0 24 25" fill="none" xmlns="http://www.w3.org/2000/svg">
<path fill-rule="evenodd" clip-rule="evenodd" d="M2 6.7334C2 5.67253 2.42143 4.65512 3.17157 3.90497C3.92172 3.15483 4.93913 2.7334 6 2.7334H18C19.0609 2.7334 20.0783 3.15483 20.8284 3.90497C21.5786 4.65512 22 5.67253 22 6.7334V18.7334C22 19.7943 21.5786 20.8117 20.8284 21.5618C20.0783 22.312 19.0609 22.7334 18 22.7334H6C4.93913 22.7334 3.92172 22.312 3.17157 21.5618C2.42143 20.8117 2 19.7943 2 18.7334V6.7334ZM6 4.7334C5.46957 4.7334 4.96086 4.94411 4.58579 5.31918C4.21071 5.69426 4 6.20297 4 6.7334V18.7334C4 19.2638 4.21071 19.7725 4.58579 20.1476C4.96086 20.5227 5.46957 20.7334 6 20.7334H12V13.7334H11C10.7348 13.7334 10.4804 13.628 10.2929 13.4405C10.1054 13.253 10 12.9986 10 12.7334C10 12.4682 10.1054 12.2138 10.2929 12.0263C10.4804 11.8388 10.7348 11.7334 11 11.7334H12V10.2334C12 9.30514 12.3687 8.4149 13.0251 7.75852C13.6815 7.10215 14.5717 6.7334 15.5 6.7334H16.1C16.3652 6.7334 16.6196 6.83876 16.8071 7.02629C16.9946 7.21383 17.1 7.46818 17.1 7.7334C17.1 7.99861 16.9946 8.25297 16.8071 8.44051C16.6196 8.62804 16.3652 8.7334 16.1 8.7334H15.5C15.303 8.7334 15.108 8.7722 14.926 8.84758C14.744 8.92296 14.5786 9.03345 14.4393 9.17274C14.3001 9.31203 14.1896 9.47739 14.1142 9.65937C14.0388 9.84136 14 10.0364 14 10.2334V11.7334H16.1C16.3652 11.7334 16.6196 11.8388 16.8071 12.0263C16.9946 12.2138 17.1 12.4682 17.1 12.7334C17.1 12.9986 16.9946 13.253 16.8071 13.4405C16.6196 13.628 16.3652 13.7334 16.1 13.7334H14V20.7334H18C18.5304 20.7334 19.0391 20.5227 19.4142 20.1476C19.7893 19.7725 20 19.2638 20 18.7334V6.7334C20 6.20297 19.7893 5.69426 19.4142 5.31918C19.0391 4.94411 18.5304 4.7334 18 4.7334H6Z" fill="#373735"/>
</svg>
