<svg width="24" height="25" viewBox="0 0 24 25" fill="none" xmlns="http://www.w3.org/2000/svg">
<path fill-rule="evenodd" clip-rule="evenodd" d="M3.49999 12.7334C3.49999 11.0523 3.99851 9.40887 4.9325 8.01105C5.86649 6.61323 7.19401 5.52377 8.74718 4.88042C10.3004 4.23708 12.0094 4.06875 13.6583 4.39672C15.3071 4.7247 16.8217 5.53424 18.0104 6.72299C19.1991 7.91174 20.0087 9.42629 20.3367 11.0751C20.6646 12.724 20.4963 14.433 19.853 15.9862C19.2096 17.5394 18.1202 18.8669 16.7223 19.8009C15.3245 20.7349 13.6811 21.2334 12 21.2334C10.3918 21.2363 8.81622 20.7804 7.45799 19.9194C7.33717 19.843 7.20137 19.7933 7.05975 19.7738C6.91812 19.7544 6.77396 19.7655 6.63699 19.8064L3.75699 20.6654L4.84199 18.1284C4.90506 17.9807 4.93162 17.82 4.91944 17.6598C4.90725 17.4997 4.85668 17.3449 4.77199 17.2084C3.93792 15.865 3.49724 14.3147 3.49999 12.7334ZM12 2.2334C6.20099 2.2334 1.49999 6.9344 1.49999 12.7334C1.49999 14.5714 1.97299 16.3014 2.80499 17.8064L1.07999 21.8404C1.00533 22.0151 0.982004 22.2075 1.01275 22.3951C1.04349 22.5826 1.12702 22.7575 1.25357 22.8992C1.38011 23.041 1.54443 23.1438 1.72728 23.1955C1.91012 23.2473 2.10392 23.2458 2.28599 23.1914L6.78599 21.8494C8.37302 22.7589 10.1709 23.2361 12 23.2334C17.799 23.2334 22.5 18.5324 22.5 12.7334C22.5 6.9344 17.799 2.2334 12 2.2334ZM14.293 14.9154L12.978 15.8414C12.2535 15.4245 11.5882 14.9123 11 14.3184C10.3685 13.6878 9.82253 12.9771 9.37599 12.2044L10.211 11.4954C10.385 11.3478 10.5033 11.1451 10.5462 10.921C10.5891 10.6969 10.5541 10.4649 10.447 10.2634L9.38299 8.2634C9.31218 8.13057 9.21231 8.01545 9.09081 7.9266C8.96931 7.83775 8.82932 7.77748 8.68128 7.75028C8.53324 7.72307 8.38097 7.72964 8.23582 7.76948C8.09067 7.80933 7.95639 7.88142 7.84299 7.9804L7.52699 8.2554C6.76799 8.9174 6.31899 10.0054 6.69099 11.1074C7.2895 12.8505 8.2799 14.4331 9.58599 15.7334C11.399 17.5464 13.241 18.2604 14.319 18.5384C15.187 18.7614 16.008 18.4624 16.587 17.9904L17.178 17.5084C17.3026 17.4068 17.4009 17.2766 17.4645 17.129C17.5281 16.9813 17.5551 16.8205 17.5433 16.6602C17.5316 16.4998 17.4813 16.3447 17.3968 16.2079C17.3123 16.0711 17.1961 15.9567 17.058 15.8744L15.38 14.8744C15.2141 14.7754 15.023 14.7266 14.8299 14.7338C14.6368 14.7411 14.45 14.8042 14.292 14.9154H14.293Z" fill="#373735"/>
</svg>
