<svg width="38" height="50" viewBox="0 0 38 50" fill="none" xmlns="http://www.w3.org/2000/svg">
<path d="M7.375 1.25H6.875V1.75V22.5625H1.5625H1.0625V23.0625V26.9375V27.4375H1.5625H6.875V32.25H1.5625H1.0625V32.75V36.625V37.125H1.5625H6.875V48.25V48.75H7.375H11.25H11.75V48.25V37.125H28.6875H29.1875V36.625V32.75V32.25H28.6875H11.75V27.4375H24.8125H24.8131C28.0276 27.4339 31.1094 26.1554 33.3824 23.8824C35.6554 21.6094 36.9339 18.5276 36.9375 15.3131V15.3125V13.375V13.3744C36.9339 10.1599 35.6554 7.07812 33.3824 4.80512C31.1094 2.53213 28.0276 1.25358 24.8131 1.25L24.8125 1.75V1.25H7.375ZM32.0625 15.3119C32.0603 17.2342 31.2958 19.0772 29.9365 20.4365C28.5772 21.7958 26.7342 22.5603 24.8119 22.5625H11.75V6.125L24.8119 6.125C24.8121 6.125 24.8122 6.125 24.8124 6.125C26.7345 6.12727 28.5773 6.89185 29.9365 8.25102C31.2958 9.6103 32.0603 11.4533 32.0625 13.3756V15.3119Z" fill="#FAB91E" stroke="#FAB91E"/>
</svg>
