<svg width="14" height="16" viewBox="0 0 14 16" fill="none" xmlns="http://www.w3.org/2000/svg">
<path d="M13.5 1.5C13.775 1.5 14 1.27344 14 1V0.5C14 0.226562 13.775 0 13.5 0H0.5C0.226562 0 0 0.226562 0 0.5V1C0 1.27344 0.226562 1.5 0.5 1.5H1V6.45937C0.369375 6.9125 0 7.40938 0 8C0 9.90563 1.04 11.6 2.62812 12.7L2.01594 14.7113C1.84875 15.3531 2.32906 16 3.00094 16H10.9978C11.6697 16 12.1503 15.3516 11.9547 14.7109L11.3438 12.7C12.9594 11.6 14 9.87813 14 8C14 7.43625 13.6306 6.91094 13 6.46063V1.5H13.5ZM3 2.25C3 2.11344 3.11344 2 3.25 2H4.75C4.8875 2 5 2.11344 5 2.25V2.75C5 2.88687 4.8875 3 4.75 3H3.25C3.11344 3 3 2.88687 3 2.75V2.25ZM7 9C4.2375 9 2 8.55313 2 8C2 7.44781 4.23844 7 7 7C9.76156 7 12 7.44781 12 8C12 8.55313 9.7625 9 7 9Z" fill="#FAB91E"/>
</svg>
