<svg width="20" height="16" viewBox="0 0 20 16" fill="none" xmlns="http://www.w3.org/2000/svg">
<path d="M5.5 9C6.87813 9 8 7.87813 8 6.5C8 5.12187 6.87813 4 5.5 4C4.12187 4 3 5.12187 3 6.5C3 7.87813 4.12187 9 5.5 9ZM17 4H9.5C9.225 4 9 4.225 9 4.5V10H2V1.5C2 1.22375 1.77625 1 1.5 1H0.5C0.223844 1 0 1.22375 0 1.5V14.5C0 14.775 0.223844 15 0.5 15H1.5C1.77625 15 2 14.775 2 14.5V13H18V14.5C18 14.7762 18.2238 15 18.5 15H19.5C19.7762 15 20 14.7762 20 14.5V7C20 5.31563 18.6562 4 17 4Z" fill="#FAB91E"/>
</svg>
