<svg width="121" height="80" viewBox="0 0 121 80" fill="none" xmlns="http://www.w3.org/2000/svg">
	<path fill-rule="evenodd" clip-rule="evenodd" d="M107.781 31.2068C99.6003 31.1668 91.4599 31.2068 83.3195 31.2068C83.3195 33.9309 83.3195 40.4206 83.3195 40.4206H90.9411V64.9374H100.199V40.4206H107.821L107.781 31.2068ZM12.0111 31.2068C12.0111 31.2068 11.9313 53.36 12.0111 54.4016C12.6496 60.5708 17.7573 65.1778 24.4212 65.1377C31.0852 65.0576 36.153 60.5709 36.7515 54.2814C36.8314 53.1197 36.7515 31.2068 36.7515 31.2068H27.6534C27.6534 31.2068 27.7333 45.7887 27.6135 52.5989C27.5337 56.7251 23.6231 57.2459 21.9472 55.2829C21.3885 54.6019 21.1491 53.6004 21.1491 52.4787C21.1092 50.1953 21.1092 31.2068 21.1092 31.2068H12.0111ZM56.1449 64.697V43.9459L50.0795 31.2068H40.5823L40.6222 64.9775L50.0396 64.9374V51.6775C50.279 51.8778 56.105 64.697 56.1449 64.697ZM0 17.9469V80H120.271V70.4657C83.0002 70.4657 45.7299 70.4256 8.45964 70.4256L8.49954 23.2749C8.49954 23.4752 32.0828 10.696 32.0828 10.696C32.2025 10.7762 56.105 23.5954 56.105 23.5954C56.1848 23.5954 111.332 23.8358 111.332 23.7957L111.372 64.8973H120.43L120.39 14.2213C100.119 14.3015 79.768 14.1813 59.4569 14.2213C58.0603 14.2213 58.0603 14.1012 57.0228 13.5003C52.5934 10.8963 32.1227 0 32.1227 0L0 17.9469Z" fill="#373735"/>
	<path fill-rule="evenodd" clip-rule="evenodd" d="M31.1251 17.6265C33.7189 17.1458 36.0333 19.0687 36.3924 21.3121C36.7915 23.9961 35.0357 26.2395 32.6814 26.6401C30.0477 27.1208 27.6934 25.1578 27.3741 22.9545C26.9751 20.0301 28.8107 18.0672 31.1251 17.6265ZM69.6723 23.7157H79.7281V70.4658H69.6723V23.7157ZM56.1449 23.5955H66.1608V70.4257H56.1449V23.5955ZM29.1299 18.8284C28.9703 19.3892 29.0102 23.1549 29.1299 23.7958C29.4092 25.1579 30.4068 25.959 31.9631 25.959C33.6391 25.919 34.4371 25.1178 34.7963 23.7157C34.9958 22.8344 34.916 19.9901 34.8362 18.8684L32.8011 18.9085C32.8011 19.95 32.8011 21.0317 32.8011 22.0732C32.8011 23.0747 32.8011 24.2365 31.5641 23.7557C30.6862 23.235 31.2847 20.0702 31.0852 18.8284H29.1299ZM30.9655 15.904C27.6934 16.3446 25.1794 19.3491 25.6583 23.1548C26.0573 26.1994 29.3294 29.0036 32.8809 28.3626C36.0333 27.8018 38.5872 24.9976 38.1083 21.1118C37.8689 19.3892 36.7516 17.947 35.7939 17.1859C34.5569 16.1844 32.8809 15.6636 30.9655 15.904Z" fill="#FAB91E"/>
	<path fill-rule="evenodd" clip-rule="evenodd" d="M69.6723 23.6754V70.4255H79.7281V23.6754H69.6723Z" fill="#FAB91E"/>
	</svg>
