<svg width="40" height="40" viewBox="0 0 40 40" fill="none" xmlns="http://www.w3.org/2000/svg">
<path fill-rule="evenodd" clip-rule="evenodd" d="M5.83338 20C5.83338 17.1981 6.66424 14.4591 8.22089 12.1294C9.77754 9.79973 11.9901 7.98395 14.5787 6.91171C17.1673 5.83947 20.0158 5.55892 22.7638 6.10554C25.5119 6.65217 28.0361 8.00141 30.0174 9.98265C31.9986 11.9639 33.3479 14.4882 33.8945 17.2362C34.4411 19.9843 34.1606 22.8327 33.0883 25.4213C32.0161 28.01 30.2003 30.2225 27.8706 31.7792C25.5409 33.3358 22.8019 34.1667 20 34.1667C17.3198 34.1714 14.6938 33.4117 12.43 31.9767C12.2287 31.8493 12.0023 31.7666 11.7663 31.7341C11.5303 31.7016 11.29 31.7201 11.0617 31.7883L6.26171 33.22L8.07004 28.9917C8.17515 28.7455 8.21943 28.4776 8.19912 28.2107C8.17881 27.9438 8.09452 27.6858 7.95338 27.4583C6.56326 25.2193 5.8288 22.6354 5.83338 20ZM20 2.5C10.335 2.5 2.50004 10.335 2.50004 20C2.50004 23.0633 3.28838 25.9467 4.67504 28.455L1.80004 35.1783C1.67561 35.4696 1.63673 35.7902 1.68797 36.1028C1.7392 36.4153 1.87843 36.7068 2.08934 36.9431C2.30025 37.1793 2.57411 37.3506 2.87885 37.4368C3.1836 37.5231 3.5066 37.5207 3.81004 37.43L11.31 35.1933C13.9551 36.7091 16.9515 37.5044 20 37.5C29.665 37.5 37.5 29.665 37.5 20C37.5 10.335 29.665 2.5 20 2.5ZM23.8217 23.6367L21.63 25.18C20.4225 24.4853 19.3137 23.6315 18.3334 22.6417C17.2809 21.5907 16.3709 20.4061 15.6267 19.1183L17.0184 17.9367C17.3084 17.6906 17.5055 17.3528 17.577 16.9793C17.6486 16.6058 17.5902 16.2191 17.4117 15.8833L15.6384 12.55C15.5204 12.3286 15.3539 12.1367 15.1514 11.9887C14.9489 11.8406 14.7156 11.7401 14.4689 11.6948C14.2221 11.6495 13.9683 11.6604 13.7264 11.7268C13.4845 11.7932 13.2607 11.9134 13.0717 12.0783L12.545 12.5367C11.28 13.64 10.5317 15.4533 11.1517 17.29C12.1492 20.1952 13.7999 22.8328 15.9767 25C18.9984 28.0217 22.0684 29.2117 23.865 29.675C25.3117 30.0467 26.68 29.5483 27.645 28.7617L28.63 27.9583C28.8377 27.789 29.0015 27.5721 29.1075 27.326C29.2135 27.0799 29.2586 26.8118 29.239 26.5446C29.2193 26.2774 29.1356 26.0188 28.9947 25.7908C28.8539 25.5628 28.6602 25.3722 28.43 25.235L25.6334 23.5683C25.3568 23.4033 25.0384 23.322 24.7166 23.3341C24.3948 23.3462 24.0834 23.4513 23.82 23.6367H23.8217Z" fill="#FAB91E"/>
</svg>
