<svg width="42" height="49" viewBox="0 0 42 49" fill="none" xmlns="http://www.w3.org/2000/svg">
<path d="M39.083 48.8333H2.91634C1.48961 48.8333 0.333008 47.6767 0.333008 46.25V21.3389C0.373027 20.7058 0.642076 20.1089 1.08992 19.6597L19.1733 1.57638C19.6578 1.09129 20.3153 0.818726 21.001 0.818726C21.6866 0.818726 22.3441 1.09129 22.8287 1.57638L40.912 19.6597C41.397 20.1435 41.6686 20.8011 41.6663 21.4861V46.25C41.6663 47.6767 40.5097 48.8333 39.083 48.8333ZM20.9997 7.05563L5.49967 22.5556V43.6666H36.4997V22.5556L20.9997 7.05563ZM17.1247 39.944L10.1342 32.969L13.7663 29.3059L17.1247 32.6435L28.233 21.5559L31.8807 25.2139L17.1247 39.9415V39.944Z" fill="#FAB91E"/>
</svg>
