<svg width="32" height="32" viewBox="0 0 32 32" fill="none" xmlns="http://www.w3.org/2000/svg"><path d="M12.5 17.8853V17.6782L12.3536 17.5318L5.13089 10.3091C4.73125 9.90948 4.5 9.3513 4.5 8.78667V5.33333C4.5 4.87214 4.87214 4.5 5.33333 4.5H26.6667C27.1279 4.5 27.5 4.87214 27.5 5.33333V8.78667C27.5 9.3513 27.2687 9.90948 26.8691 10.3091L19.6464 17.5318L19.5 17.6782V17.8853V25.3333C19.5 25.649 19.3219 25.9376 19.0385 26.0797L13.707 28.7455C13.7068 28.7456 13.7066 28.7457 13.7064 28.7458C13.5884 28.8043 13.4608 28.8333 13.3333 28.8333C13.1806 28.8333 13.0295 28.7917 12.8969 28.7098C12.6494 28.5562 12.5 28.2883 12.5 28V17.8853ZM18.0766 16.7452L18.0776 16.7442L25.6909 9.13089L25.8376 8.98418L25.8373 8.7767L25.8347 6.66603L25.834 6.16667H25.3347H6.66667H6.16667V6.66667V8.78667V8.99388L6.31324 9.14034L13.9226 16.7443L13.9234 16.7452C14.079 16.8999 14.1667 17.1107 14.1667 17.3333V25.8427V26.6517L14.8903 26.2899L17.5569 24.9565L17.8333 24.8184V24.5093V17.3333C17.8333 17.1107 17.921 16.8999 18.0766 16.7452Z" fill="#373735" stroke="#F2F2F2"/></svg>