<svg width="90" height="60" viewBox="0 0 90 60" fill="none" xmlns="http://www.w3.org/2000/svg">
<path fill-rule="evenodd" clip-rule="evenodd" d="M80.5467 23.4051C74.4334 23.3751 68.3499 23.4051 62.2664 23.4051C62.2664 25.4482 62.2664 30.3155 62.2664 30.3155H67.9622V48.7031H74.8807V30.3155H80.5765L80.5467 23.4051ZM8.97614 23.4051C8.97614 23.4051 8.9165 40.02 8.97614 40.8012C9.45328 45.4281 13.2704 48.8833 18.2505 48.8533C23.2306 48.7932 27.0179 45.4281 27.4652 40.7111C27.5249 39.8398 27.4652 23.4051 27.4652 23.4051H20.666C20.666 23.4051 20.7256 34.3415 20.6362 39.4492C20.5765 42.5438 17.6541 42.9344 16.4016 41.4622C15.9841 40.9514 15.8052 40.2003 15.8052 39.359C15.7753 37.6465 15.7753 23.4051 15.7753 23.4051H8.97614ZM41.9583 48.5228V32.9594L37.4254 23.4051H30.328L30.3579 48.7331L37.3956 48.7031V38.7581C37.5746 38.9084 41.9284 48.5228 41.9583 48.5228ZM0 13.4602V60H89.8807V52.8493C62.0278 52.8493 34.1749 52.8192 6.32207 52.8192L6.35189 17.4562C6.35189 17.6064 23.9761 8.02204 23.9761 8.02204C24.0656 8.08213 41.9284 17.6966 41.9284 17.6966C41.9881 17.6966 83.2008 17.8768 83.2008 17.8468L83.2306 48.673H90L89.9702 10.666C74.8211 10.7261 59.6123 10.636 44.4334 10.666C43.3897 10.666 43.3897 10.5759 42.6143 10.1252C39.3042 8.17226 24.006 0 24.006 0L0 13.4602Z" fill="#373735"/>
<path fill-rule="evenodd" clip-rule="evenodd" d="M23.2602 13.2198C25.1986 12.8593 26.9282 14.3014 27.1966 15.984C27.4948 17.997 26.1826 19.6795 24.4232 19.98C22.455 20.3405 20.6956 18.8683 20.457 17.2158C20.1588 15.0225 21.5306 13.5503 23.2602 13.2198ZM52.0673 17.7867H59.5823V52.8493H52.0673V17.7867ZM41.958 17.6965H49.4431V52.8192H41.958V17.6965ZM21.7691 14.1212C21.6498 14.5418 21.6797 17.366 21.7691 17.8468C21.9779 18.8683 22.7234 19.4692 23.8864 19.4692C25.1389 19.4391 25.7353 18.8383 26.0037 17.7867C26.1528 17.1257 26.0932 14.9925 26.0335 14.1512L24.5127 14.1813C24.5127 14.9624 24.5127 15.7737 24.5127 16.5548C24.5127 17.306 24.5127 18.1773 23.5882 17.8167C22.9322 17.4261 23.3795 15.0526 23.2304 14.1212H21.7691ZM23.1409 11.9279C20.6956 12.2584 18.8168 14.5118 19.1747 17.366C19.4729 19.6495 21.9182 21.7526 24.5723 21.2719C26.9282 20.8513 28.8367 18.7481 28.4789 15.8337C28.2999 14.5418 27.465 13.4602 26.7492 12.8893C25.8248 12.1382 24.5723 11.7476 23.1409 11.9279Z" fill="#FAB91E"/>
<path fill-rule="evenodd" clip-rule="evenodd" d="M52.0684 17.7566V52.8192H59.5833V17.7566H52.0684Z" fill="#FAB91E"/>
</svg>
