<svg width="20" height="16" viewBox="0 0 20 16" fill="none" xmlns="http://www.w3.org/2000/svg">
<path d="M0 4.85C0 4.62187 0.0672813 4.4 0.193375 4.20937L2.55469 0.667813C2.83281 0.250656 3.3 0 3.80312 0H16.1969C16.7 0 17.1656 0.250656 17.4438 0.667813L19.8062 4.20937C19.9312 4.4 20 4.62187 20 4.85C20 5.48438 19.4844 6 18.85 6H1.15125C0.515625 6 9.375e-06 5.48438 9.375e-06 4.85H0ZM2 7H4V12H10V7H12V14.5C12 15.3281 11.3281 16 10.5 16H3.5C2.67156 16 2 15.3281 2 14.5V7ZM16 7H18V15C18 15.5531 17.5531 16 17 16C16.4469 16 16 15.5531 16 15V7Z" fill="#FAB91E"/>
</svg>
